<svg width="44" height="44" viewBox="0 0 44 44" fill="none" xmlns="http://www.w3.org/2000/svg">
<rect x="1.25" y="1.25" width="41.5" height="41.5" stroke="white" stroke-opacity="0.25" stroke-width="1.5"/>
<g clip-path="url(#clip0)">
<path d="M14.983 30.6633H26.8655L26.298 28.8258L27.6555 29.9908L28.8997 31.1058L31.1663 33V15.0625C31.1097 13.9475 30.1497 13 28.9597 13L14.9872 13.0025C13.798 13.0025 12.833 13.9517 12.833 15.0667V28.6C12.833 29.7758 13.7963 30.6633 14.983 30.6633ZM23.773 17.7358L23.7455 17.7458L23.7555 17.7358H23.773ZM17.4138 18.7933C18.9413 17.6817 20.3572 17.735 20.3572 17.735L20.4713 17.8475C18.6022 18.2933 17.7547 19.1283 17.7547 19.1283C17.7547 19.1283 17.9813 19.0175 18.3772 18.8483C20.8947 17.8583 23.6438 17.93 26.1888 19.1833C26.1888 19.1833 25.3397 18.4025 23.5855 17.9025L23.7405 17.75C23.983 17.7508 25.2663 17.7958 26.6397 18.8C26.6397 18.8 28.1763 21.425 28.1763 24.65C28.1255 24.5883 27.223 26.0383 24.9005 26.0883C24.9005 26.0883 24.5072 25.6433 24.2272 25.255C25.5855 24.865 26.0938 24.085 26.0938 24.085C25.648 24.3658 25.2413 24.5325 24.9113 24.6992C24.4038 24.9225 23.8955 25.0325 23.388 25.145C20.9847 25.535 19.6355 24.8825 18.3605 24.365L17.9247 24.1433C17.9247 24.1433 18.4322 24.9233 19.7363 25.3133C19.3938 25.7042 19.0547 26.1483 19.0547 26.1483C16.733 26.0933 15.8863 24.6433 15.8863 24.6433C15.8863 21.4133 17.4138 18.7933 17.4138 18.7933Z" fill="white"/>
<path d="M23.9231 23.6422C24.5156 23.6422 24.9981 23.1422 24.9981 22.5256C24.9981 21.9131 24.5181 21.4131 23.9231 21.4131V21.4156C23.3331 21.4156 22.8498 21.9139 22.8481 22.5306C22.8481 23.1422 23.3306 23.6422 23.9231 23.6422Z" fill="white"/>
<path d="M20.075 23.6422C20.6675 23.6422 21.15 23.1422 21.15 22.5256C21.15 21.9131 20.6708 21.4131 20.0783 21.4131L20.075 21.4156C19.4825 21.4156 19 21.9139 19 22.5306C19 23.1422 19.4825 23.6422 20.075 23.6422Z" fill="white"/>
</g>
<defs>
<clipPath id="clip0">
<rect width="20" height="20" fill="white" transform="translate(12 13)"/>
</clipPath>
</defs>
</svg>
