<svg width="20" height="20" viewBox="0 0 20 20" fill="none" xmlns="http://www.w3.org/2000/svg">
<g opacity="0.7">
<path fill-rule="evenodd" clip-rule="evenodd" d="M6.41277 11.1589C5.87547 11.1589 5.43896 10.7224 5.43896 10.1851C5.43896 9.6494 5.87547 9.21289 6.41277 9.21289C6.95008 9.21289 7.38658 9.6494 7.38658 10.1851C7.38658 10.7224 6.95008 11.1589 6.41277 11.1589ZM10.1985 11.1589C9.66117 11.1589 9.22466 10.7224 9.22466 10.1851C9.22466 9.6494 9.66117 9.21289 10.1985 9.21289C10.7358 9.21289 11.1723 9.6494 11.1723 10.1851C11.1723 10.7224 10.7358 11.1589 10.1985 11.1589ZM13.0105 10.1851C13.0105 10.7224 13.447 11.1589 13.9843 11.1589C14.5216 11.1589 14.9581 10.7224 14.9581 10.1851C14.9581 9.6494 14.5216 9.21289 13.9843 9.21289C13.447 9.21289 13.0105 9.6494 13.0105 10.1851Z" fill="white"/>
<path fill-rule="evenodd" clip-rule="evenodd" d="M10.0165 1.6665C5.17484 1.6665 1.6665 5.6216 1.6665 10.0124C1.6665 11.4145 2.07484 12.8575 2.7915 14.1761C2.92484 14.3939 2.9415 14.6685 2.84984 14.9281L2.2915 16.7975C2.1665 17.2482 2.54984 17.5812 2.97484 17.4477L4.65817 16.9478C5.1165 16.7975 5.47484 16.9887 5.89984 17.2482C7.1165 17.9651 8.63317 18.3332 9.99984 18.3332C14.1332 18.3332 18.3332 15.1367 18.3332 9.98732C18.3332 5.54649 14.7498 1.6665 10.0165 1.6665Z" stroke="white" stroke-width="1.5" stroke-linecap="round" stroke-linejoin="round"/>
</g>
</svg>
